<svg id="Layer_1" data-name="Layer 1" xmlns="http://www.w3.org/2000/svg" viewBox="0 0 280 300"><defs><style>.cls-1{fill:#435ba9;}.cls-2{fill:#4767b0;}.cls-3{fill:#ebebeb;}.cls-4{fill:#010101;}.cls-5{fill:#fff;}</style></defs><title>CSS Logo</title><path class="cls-1" d="M139.92,244.51,85.23,229.33,73,92.64H207l-12.2,136.67-54.84,15.2Z"/><path class="cls-2" d="M184.31,220.61l10.43-116.8H140V232.89l44.31-12.28Z"/><path class="cls-3" d="M101,154.51l1.5,16.77H140V154.51Zm-3-33.93,1.52,16.76H140V120.58Zm42,77.47-.07,0-18.67-5-1.2-13.37H103.23L105.58,206l34.34,9.54.08,0Z"/><path class="cls-4" d="M104.56,55.49h20.3V64H113.05v8.49h11.81V81h-20.3Zm24.36,0h20.31v7.38H137.42v1.48h11.81v17H128.92V73.58h11.82V72.1H128.92V55.49Zm24.37,0H173.6v7.38H161.78v1.48H173.6v17H153.29V73.58H165.1V72.1H153.29V55.49Z"/><path class="cls-5" d="M178.91,154.51l3-33.93h-42v16.76h23.63L162,154.51h-22.1v16.77h20.65l-2,21.74-18.7,5v17.44L174.31,206l.25-2.83L178.5,159l.41-4.5Z"/></svg>